<svg xmlns="http://www.w3.org/2000/svg" width="20" height="20" viewBox="0 0 485.21 485.21" style="enable-background:new 0 0 485.211 485.211" xml:space="preserve"><path d="M485.21 363.9c0 10.64-3 20.5-7.78 29.18l-153.2-171.41L475.75 89.09a60.2 60.2 0 0 1 9.45 32.21v242.6zm-242.6-111.1L453.47 68.3c-8.65-4.74-18.4-7.65-28.9-7.65H60.64a59.68 59.68 0 0 0-28.89 7.64l210.85 184.5zm58.78-11.17-48.8 42.74a15.14 15.14 0 0 1-9.98 3.72c-3.57 0-7.13-1.24-9.98-3.72l-48.82-42.74-155.14 173.6a59.92 59.92 0 0 0 31.98 9.33h363.91c11.79 0 22.69-3.5 31.98-9.33L301.4 241.63zM9.45 89.1A60.22 60.22 0 0 0 0 121.3v242.6c0 10.63 2.98 20.5 7.79 29.17l153.18-171.44L9.45 89.08z"/></svg>