<svg xmlns="http://www.w3.org/2000/svg" width="22" height="22" viewBox="0 0 512 512" style="enable-background:new 0 0 512 512" xml:space="preserve"><path d="M256 32c123.5 0 224 100.5 224 224S379.5 480 256 480 32 379.5 32 256 132.5 32 256 32m0-32C114.62 0 0 114.63 0 256s114.63 256 256 256 256-114.63 256-256S397.37 0 256 0zm142.72 341.6-1.44-4.38c-3.37-10.06-14.5-20.56-24.75-23.38L334.7 303.5c-10.25-2.78-24.88.97-32.4 8.5l-13.7 13.69a145.37 145.37 0 0 1-102.21-102.25l13.68-13.69c7.5-7.5 11.25-22.13 8.47-32.4l-10.31-37.85c-2.78-10.25-13.35-21.38-23.4-24.75l-4.32-1.44c-10.1-3.37-24.5.03-32 7.56l-20.5 20.5c-3.66 3.63-6 14.04-6 14.07a242.2 242.2 0 0 0 70.81 173.75 241.93 241.93 0 0 0 173.16 70.78c.34 0 11.06-2.28 14.72-5.94l20.5-20.5c7.5-7.47 10.87-21.87 7.53-31.94z"/></svg>