<svg viewBox="0 0 30 30" xmlns="http://www.w3.org/2000/svg"><g data-name="Layer 2"><circle cx="15" cy="9.57" fill="none" r="3.43"/><path d="M25.31 20.4a1 1 0 1 0-.62 1.9c2.29.75 3.31 1.65 3.31 2.2 0 1.4-5.19 3.5-13 3.5S2 25.9 2 24.5c0-.55 1.02-1.45 3.31-2.2a1 1 0 1 0-.62-1.9C.8 21.67 0 23.33 0 24.5 0 28.11 7.55 30 15 30s15-1.89 15-5.5c0-1.17-.81-2.83-4.69-4.1Z"/><path d="M14.38 25.78a1 1 0 0 0 1.24 0c.37-.3 8.95-7.26 8.95-16.2a9.57 9.57 0 0 0-19.14 0c0 8.94 8.58 15.9 8.95 16.2Zm-2.8-16.2A3.43 3.43 0 1 1 15 13a3.43 3.43 0 0 1-3.43-3.43Z"/></g></svg>